<?xml version="1.0" encoding="utf-8"?>
<!-- Generator: Adobe Illustrator 23.0.0, SVG Export Plug-In . SVG Version: 6.00 Build 0)  -->
<svg version="1.1" id="Capa_1" xmlns="http://www.w3.org/2000/svg" xmlns:xlink="http://www.w3.org/1999/xlink" x="0px" y="0px"
	 viewBox="0 0 24 24" style="enable-background:new 0 0 24 24;" xml:space="preserve">
<style type="text/css">
	.st0{fill:url(#SVGID_1_);}
</style>
<title></title>
<linearGradient id="SVGID_1_" gradientUnits="userSpaceOnUse" x1="3.315" y1="12" x2="20.685" y2="12">
	<stop  offset="6.926126e-08" style="stop-color:#EA7E8E"/>
	<stop  offset="1" style="stop-color:#E02C2F"/>
</linearGradient>
<path class="st0" d="M3.9,15.7L6.3,0.5C6.3,0.2,6.6,0,6.9,0C7,0,7.2,0.1,7.3,0.3l2.5,4.8L3.9,15.7z M20.7,19.4l-2.3-14
	c0-0.3-0.3-0.5-0.6-0.4c-0.1,0-0.2,0.1-0.3,0.2L3.3,19.4l7.9,4.4c0.5,0.3,1.1,0.3,1.6,0C12.8,23.8,20.7,19.4,20.7,19.4z M14.3,7.1
	l-1.8-3.5c-0.1-0.3-0.5-0.4-0.7-0.2c-0.1,0.1-0.2,0.1-0.2,0.2L3.5,18L14.3,7.1z"/>
</svg>
