<?xml version="1.0" encoding="utf-8"?>
<!-- Generator: Adobe Illustrator 23.0.0, SVG Export Plug-In . SVG Version: 6.00 Build 0)  -->
<svg version="1.1" id="Capa_1" xmlns="http://www.w3.org/2000/svg" xmlns:xlink="http://www.w3.org/1999/xlink" x="0px" y="0px"
	 viewBox="0 0 24 24" style="enable-background:new 0 0 24 24;" xml:space="preserve">
<style type="text/css">
	.st0{fill:url(#SVGID_1_);}
	.st1{clip-path:url(#SVGID_3_);fill:url(#SVGID_4_);}
</style>
<title></title>
<linearGradient id="SVGID_1_" gradientUnits="userSpaceOnUse" x1="-38.8182" y1="55.5095" x2="22.0963" y2="2.3477">
	<stop  offset="6.926126e-08" style="stop-color:#1D70B7"/>
	<stop  offset="0.672" style="stop-color:#1D70B7"/>
	<stop  offset="1" style="stop-color:#AA0CC6"/>
	<stop  offset="1" style="stop-color:#AA0CC6"/>
</linearGradient>
<path class="st0" d="M3.9,15.7L6.3,0.5C6.3,0.2,6.6,0,6.9,0C7,0,7.2,0.1,7.3,0.3l2.5,4.8L3.9,15.7z M20.7,19.4l-2.3-14
	c0-0.3-0.3-0.5-0.6-0.4c-0.1,0-0.2,0.1-0.3,0.2L3.3,19.4l7.9,4.4c0.5,0.3,1.1,0.3,1.6,0L20.7,19.4z M14.3,7.1l-1.8-3.5
	c-0.1-0.3-0.5-0.4-0.7-0.2c-0.1,0.1-0.2,0.1-0.2,0.2L3.5,18L14.3,7.1z"/>
<g>
	<defs>
		<path id="SVGID_2_" d="M-366.2,122.8c0,12.6,10.2,22.8,22.8,22.8c12.6,0,22.8-10.2,22.8-22.8c0-12.6-10.2-22.8-22.8-22.8
			C-356,100.1-366.2,110.3-366.2,122.8"/>
	</defs>
	<clipPath id="SVGID_3_">
		<use xlink:href="#SVGID_2_"  style="overflow:visible;"/>
	</clipPath>
	
		<linearGradient id="SVGID_4_" gradientUnits="userSpaceOnUse" x1="-295.0213" y1="407.2571" x2="-294.0213" y2="407.2571" gradientTransform="matrix(-85.1459 -152.6753 152.6753 -85.1459 -87573.0234 -10120.8564)">
		<stop  offset="6.926126e-08" style="stop-color:#1D70B7"/>
		<stop  offset="0.672" style="stop-color:#1D70B7"/>
		<stop  offset="1" style="stop-color:#AA0CC6"/>
		<stop  offset="1" style="stop-color:#AA0CC6"/>
	</linearGradient>
	<polygon class="st1" points="-301.3,134.8 -331.4,80.7 -385.5,110.9 -355.4,165 	"/>
</g>
</svg>
