<?xml version="1.0" encoding="utf-8"?>
<!-- Generator: Adobe Illustrator 23.0.0, SVG Export Plug-In . SVG Version: 6.00 Build 0)  -->
<svg version="1.1" id="Layer_1" xmlns="http://www.w3.org/2000/svg" xmlns:xlink="http://www.w3.org/1999/xlink" x="0px" y="0px"
	 viewBox="0 0 24 24" style="enable-background:new 0 0 24 24;" xml:space="preserve">
<style type="text/css">
	.st0{fill:url(#SVGID_1_);}
</style>
<g>
	<g>
		
			<linearGradient id="SVGID_1_" gradientUnits="userSpaceOnUse" x1="-27.4823" y1="48.7668" x2="19.9739" y2="7.6724" gradientTransform="matrix(1 0 0 -1 0 26)">
			<stop  offset="6.926126e-08" style="stop-color:#1D70B7"/>
			<stop  offset="0.672" style="stop-color:#1D70B7"/>
			<stop  offset="1" style="stop-color:#AA0CC6"/>
			<stop  offset="1" style="stop-color:#AA0CC6"/>
		</linearGradient>
		<path class="st0" d="M14.4,13c0.3,0,0.5,0.1,0.7,0.4c0.2,0.3,0.3,0.6,0.3,1s-0.1,0.7-0.3,1s-0.4,0.4-0.7,0.4s-0.5-0.1-0.7-0.4
			c-0.2-0.3-0.3-0.6-0.3-1s0.1-0.7,0.3-1C13.9,13.1,14.2,13,14.4,13 M17.9,9.4c0.7,0.8,1.1,1.8,1.1,3c0,0.7-0.1,1.4-0.3,2
			c-0.2,0.6-0.4,1.1-0.7,1.5c-0.3,0.4-0.6,0.7-1,1s-0.7,0.5-1.1,0.6c-0.3,0.1-0.7,0.2-1.1,0.3c-0.4,0.1-0.7,0.1-0.9,0.1
			s-0.4,0-0.7,0c-0.1,0-0.2,0-0.5,0s-0.6,0-0.8,0s-0.5,0-0.8,0s-0.5,0-0.5,0c-0.2,0-0.5,0-0.7,0S9.4,17.8,9,17.8
			c-0.4-0.1-0.8-0.2-1.1-0.3c-0.3-0.1-0.7-0.3-1.1-0.6c-0.4-0.3-0.7-0.6-1-1S5.3,15,5.1,14.4s-0.3-1.3-0.3-2c0-1.2,0.4-2.1,1.1-3
			C6,9.4,6,9,6.1,8.2s0.2-1.5,0.5-2.1c0.9,0.1,2.1,0.6,3.5,1.6c0.5-0.1,1.1-0.2,1.9-0.2c0.9,0,1.5,0.1,1.9,0.2
			c0.6-0.4,1.2-0.8,1.8-1c0.6-0.3,1-0.4,1.3-0.5l0.4-0.1c0.3,0.6,0.4,1.4,0.5,2.1C18,9,18,9.4,17.9,9.4 M12,17.2
			c1.7,0,3-0.2,3.8-0.6c0.9-0.4,1.3-1.2,1.3-2.5c0-0.7-0.3-1.3-0.8-1.8c-0.3-0.3-0.6-0.4-1-0.5s-0.9-0.1-1.7,0s-1.3,0.1-1.6,0.1
			c-0.4,0-0.8,0-1.3-0.1c-0.5,0-0.9-0.1-1.2-0.1s-0.6,0-1,0.1c-0.3,0.1-0.6,0.2-0.9,0.4c-0.5,0.5-0.8,1.1-0.8,1.8
			c0,1.3,0.4,2.1,1.3,2.5C9,17,10.3,17.2,12,17.2L12,17.2 M9.6,13c0.3,0,0.5,0.1,0.7,0.4c0.2,0.3,0.3,0.6,0.3,1s-0.1,0.7-0.3,1
			s-0.4,0.4-0.7,0.4s-0.5-0.1-0.7-0.4c-0.2-0.3-0.3-0.6-0.3-1s0.1-0.7,0.3-1C9.1,13.1,9.3,13,9.6,13"/>
	</g>
</g>
</svg>
