<?xml version="1.0" encoding="utf-8"?>
<!-- Generator: Adobe Illustrator 23.0.0, SVG Export Plug-In . SVG Version: 6.00 Build 0)  -->
<svg version="1.1" id="Capa_1" xmlns="http://www.w3.org/2000/svg" xmlns:xlink="http://www.w3.org/1999/xlink" x="0px" y="0px"
	 viewBox="0 0 512 512" style="enable-background:new 0 0 512 512;" xml:space="preserve">
<style type="text/css">
	.st0{fill:url(#SVGID_1_);}
</style>
<g>
	
		<linearGradient id="SVGID_1_" gradientUnits="userSpaceOnUse" x1="953.7434" y1="-12.0413" x2="-461.7459" y2="395.4481" gradientTransform="matrix(1 0 0 -1 0 416)">
		<stop  offset="0.2089" style="stop-color:#AA0CC6"/>
		<stop  offset="0.6542" style="stop-color:#1D70B7"/>
		<stop  offset="0.8223" style="stop-color:#1D70B7"/>
	</linearGradient>
	<path id="SVGID_11_" class="st0" d="M187.3,103.1h46.1v299.3l-129.5-34v-50.6l83.4,19.5L187.3,103.1L187.3,103.1z M266.2,103.1
		h138.4l-3.8,49.6H315v80.8l79.6-13.3l-14.8,151.7l-113.6,30.5v-50l74.5-21.3l3.6-56.8l-78.2,13.3L266.2,103.1L266.2,103.1z
		 M42.6,17.4l37.6,427.4l171.5,49.9l0,0h0.1l0,0l0,0l171.5-49.9l37.6-427.4C460.9,17.4,42.6,17.4,42.6,17.4z"/>
</g>
</svg>
