<?xml version="1.0" encoding="utf-8"?>
<!-- Generator: Adobe Illustrator 23.0.0, SVG Export Plug-In . SVG Version: 6.00 Build 0)  -->
<svg version="1.1" id="Layer_2" xmlns="http://www.w3.org/2000/svg" xmlns:xlink="http://www.w3.org/1999/xlink" x="0px" y="0px"
	 viewBox="0 0 600 600" style="enable-background:new 0 0 600 600;" xml:space="preserve">
<style type="text/css">
	.st0{fill:#FFFFFF;}
	.st1{fill:url(#Trazado_73_1_);}
	.st2{fill:url(#SVGID_1_);}
	.st3{fill:url(#Trazado_77_1_);}
	.st4{fill:url(#Trazado_79_1_);}
	.st5{fill:url(#Trazado_81_1_);}
</style>
<g>
	<path id="Trazado_72" class="st0" d="M183.4,503.3c-38.2,0-65.1-19.1-77.6-55.2l-0.2-0.5l-0.1-0.5c-0.6-2.3-14.1-57.8,25.1-120.4
		l4.9-7.8l33,9.9l-3,11.3c-1.7,8.4-1.8,17.1-0.2,25.6c3.1,15.9,12.4,27.8,27.6,35.5c14.9-5.2,28.9-12.6,41.6-21.9
		c33.3-23.8,58.6-57.8,75.3-101l3-7.7h133.4l3.5,5.7c4.9,8,29.7,48.5,32.9,63.4c2.5,11.7,0.8,38.3-14.4,59.7
		c-12.4,17.5-31.6,28.4-55.4,31.5c-57.2,7.3-92.1,18.6-138.6,44.8C256,486,219.9,503.3,183.4,503.3L183.4,503.3z"/>
	<linearGradient id="Trazado_73_1_" gradientUnits="userSpaceOnUse" x1="-146.516" y1="697.2495" x2="515.2258" y2="199.2017">
		<stop  offset="6.926126e-08" style="stop-color:#1D70B7"/>
		<stop  offset="0.672" style="stop-color:#1D70B7"/>
		<stop  offset="1" style="stop-color:#AA0CC6"/>
		<stop  offset="1" style="stop-color:#AA0CC6"/>
	</linearGradient>
	<path id="Trazado_73" class="st1" d="M494.5,337.2c-3.3-15.4-23-48.7-34.5-67.2l-7.1-11.4h-50.5l-5.9,24.2h42.9
		c0,0,28.5,45.9,31.4,59.5c2.9,13.6-1.3,69.2-59.5,76.7c-58.2,7.4-94.8,19.1-143,46.3c-24.2,13.7-56.1,26-84.9,26
		c-28.5,0-54.1-12.1-66.2-47c0,0-13.3-52.1,23.6-111l12.9,3.9c0,0-14.2,54.4,38.2,77c0,0,86.4-20.7,129.1-131.4h19.7l-7.2-24.2h-29
		l-6,15.5c-15.6,40.5-39.2,72.4-70.1,94.8c-10.6,7.8-22.2,14.2-34.4,19.1c-9.1-5.4-15.3-14.7-17-25.2c-1.1-6.5-1.1-13.1,0.2-19.5
		l5.9-22.6l-22.4-6.7l-12.9-3.9l-17.7-5.3l-9.8,15.6c-41.9,66.9-27.2,127.3-26.6,129.8l0.3,1l0.3,1c14.2,40.8,45.8,63.3,89.1,63.3
		c39.2,0,77.5-18.2,96.8-29.1c44.9-25.3,78.8-36.3,134.2-43.3c27.3-3.5,49.3-16.1,63.8-36.5C495.7,381.6,497.6,351.4,494.5,337.2z"
		/>
	<path id="Trazado_74" class="st0" d="M367,152.9l-56.9,110.4L242.4,66.9h249.9l-69.5,202L367,152.9z"/>
	<linearGradient id="SVGID_1_" gradientUnits="userSpaceOnUse" x1="-234.302" y1="580.6107" x2="427.4398" y2="82.563">
		<stop  offset="6.926126e-08" style="stop-color:#1D70B7"/>
		<stop  offset="0.672" style="stop-color:#1D70B7"/>
		<stop  offset="1" style="stop-color:#AA0CC6"/>
		<stop  offset="1" style="stop-color:#AA0CC6"/>
	</linearGradient>
	<path class="st2" d="M225.5,54.8l11.1,32.1l52.9,153.6l1.5,4.3c13.6-1.2,29.1,0.7,30,17.4c0.1,1.1,0,2.3-0.2,3.6
		c0.3,0.4,0.6,0.8,0.9,1.3l12.1-23.5l32.8-63.6l32.5,67.6l6.9,14.3c1.3-0.3,2.6-0.6,3.9-1c8.4-6.8,20.7-9.5,31.5-9l2.4-6.9
		l54.4-158.1l11-32.1v0H225.5z M420.9,237.1l-53.5-111.3l-55.1,106.8L259.4,79h215.9L420.9,237.1z"/>
	<path id="Trazado_76" class="st0" d="M436.2,324.2c-23.2,0-41.9-18.8-41.9-41.9c0-23.2,18.8-41.9,41.9-41.9
		c23.2,0,41.9,18.8,41.9,41.9C478.1,305.4,459.3,324.2,436.2,324.2z"/>
	<linearGradient id="Trazado_77_1_" gradientUnits="userSpaceOnUse" x1="-135.2084" y1="712.2736" x2="526.5334" y2="214.2258">
		<stop  offset="6.926126e-08" style="stop-color:#1D70B7"/>
		<stop  offset="0.672" style="stop-color:#1D70B7"/>
		<stop  offset="1" style="stop-color:#AA0CC6"/>
		<stop  offset="1" style="stop-color:#AA0CC6"/>
	</linearGradient>
	<path id="Trazado_77" class="st3" d="M436.2,252.4c16.5,0,29.9,13.4,29.9,29.9c0,16.5-13.4,29.9-29.8,29.9c0,0,0,0,0,0
		c-16.5,0-29.9-13.4-29.9-29.9c0,0,0,0,0,0C406.3,265.8,419.7,252.4,436.2,252.4 M436.2,228.2c-29.8,0-54,24.2-54,54
		c0,29.8,24.2,54,54,54c29.8,0,54-24.2,54-54C490.2,252.4,466,228.2,436.2,228.2L436.2,228.2z"/>
	<path id="Trazado_78" class="st0" d="M298.7,324.2c-23.2,0-41.9-18.8-41.9-41.9c0-23.2,18.8-41.9,41.9-41.9
		c23.2,0,41.9,18.8,41.9,41.9C340.6,305.4,321.9,324.2,298.7,324.2z"/>
	<linearGradient id="Trazado_79_1_" gradientUnits="userSpaceOnUse" x1="-184.9126" y1="646.2331" x2="476.8292" y2="148.1853">
		<stop  offset="6.926126e-08" style="stop-color:#1D70B7"/>
		<stop  offset="0.672" style="stop-color:#1D70B7"/>
		<stop  offset="1" style="stop-color:#AA0CC6"/>
		<stop  offset="1" style="stop-color:#AA0CC6"/>
	</linearGradient>
	<path id="Trazado_79" class="st4" d="M298.7,252.4c16.5,0,29.8,13.4,29.8,29.9c0,16.5-13.4,29.9-29.8,29.9
		c-16.5,0-29.9-13.4-29.9-29.8c0,0,0,0,0,0C268.9,265.8,282.2,252.4,298.7,252.4C298.7,252.4,298.7,252.4,298.7,252.4 M298.7,228.2
		c-29.8,0-54,24.2-54.1,54c0,29.8,24.2,54,54.1,54c29.8,0,54-24.2,54-54C352.7,252.4,328.5,228.2,298.7,228.2L298.7,228.2z"/>
	<path id="Trazado_80" class="st0" d="M160.4,324.2c-23.2,0-41.9-18.8-41.9-41.9c0-23.2,18.8-41.9,41.9-41.9
		c23.2,0,41.9,18.8,41.9,41.9C202.3,305.4,183.5,324.2,160.4,324.2z"/>
	<linearGradient id="Trazado_81_1_" gradientUnits="userSpaceOnUse" x1="-234.9384" y1="579.7653" x2="426.8034" y2="81.7175">
		<stop  offset="6.926126e-08" style="stop-color:#1D70B7"/>
		<stop  offset="0.672" style="stop-color:#1D70B7"/>
		<stop  offset="1" style="stop-color:#AA0CC6"/>
		<stop  offset="1" style="stop-color:#AA0CC6"/>
	</linearGradient>
	<path id="Trazado_81" class="st5" d="M160.4,252.4c16.5,0,29.9,13.4,29.9,29.9c0,16.5-13.4,29.9-29.8,29.9c0,0,0,0,0,0
		c-16.5,0-29.9-13.4-29.9-29.9c0,0,0,0,0,0C130.5,265.8,143.9,252.4,160.4,252.4 M160.4,228.2c-29.8,0-54,24.2-54,54
		c0,29.8,24.2,54,54,54c29.8,0,54-24.2,54-54C214.4,252.4,190.2,228.2,160.4,228.2L160.4,228.2z"/>
</g>
</svg>
