<?xml version="1.0" encoding="utf-8"?>
<!-- Generator: Adobe Illustrator 23.0.0, SVG Export Plug-In . SVG Version: 6.00 Build 0)  -->
<svg version="1.1" id="Capa_1" xmlns="http://www.w3.org/2000/svg" xmlns:xlink="http://www.w3.org/1999/xlink" x="0px" y="0px"
	 viewBox="0 0 50 50" style="enable-background:new 0 0 50 50;" xml:space="preserve">
<style type="text/css">
	.st0{fill:#E02C2F;}
</style>
<g id="js" transform="translate(-4.464 -2)">
	<path id="Trazado_88" class="st0" d="M49.7,4.3C49.5,4.1,49.3,4,49,4H9.9C9.6,4,9.4,4.1,9.2,4.3C9,4.5,8.9,4.8,8.9,5.1l3.5,39.4
		c0,0.4,0.3,0.8,0.7,0.9l16,4.6c0.2,0.1,0.4,0.1,0.6,0l16-4.6c0.4-0.1,0.7-0.5,0.7-0.9L50,5.1C50,4.8,49.9,4.5,49.7,4.3z M16.5,31
		l7,1.9V13h4v26l-11-3.1V31z M42.5,24l-1.1,12.3l-10,2.8v-4.6l6.8-1.9l0.3-3.8l-7,1.2V13h12l-0.3,4h-7.7v8L42.5,24z"/>
</g>
</svg>
