<?xml version="1.0" encoding="utf-8"?>
<!-- Generator: Adobe Illustrator 23.0.0, SVG Export Plug-In . SVG Version: 6.00 Build 0)  -->
<svg version="1.1" id="Capa_1" xmlns="http://www.w3.org/2000/svg" xmlns:xlink="http://www.w3.org/1999/xlink" x="0px" y="0px"
	 viewBox="0 0 511 511" style="enable-background:new 0 0 511 511;" xml:space="preserve">
<style type="text/css">
	.st0{fill:url(#SVGID_1_);}
	.st1{fill:url(#SVGID_2_);}
	.st2{fill:url(#SVGID_3_);}
	.st3{fill:url(#SVGID_4_);}
	.st4{fill:url(#SVGID_5_);}
</style>
<g>
	
		<linearGradient id="SVGID_1_" gradientUnits="userSpaceOnUse" x1="-181.5198" y1="564.2372" x2="354.4802" y2="103.2373" gradientTransform="matrix(1 0 0 -1 0 512)">
		<stop  offset="6.926126e-08" style="stop-color:#1D70B7"/>
		<stop  offset="0.672" style="stop-color:#1D70B7"/>
		<stop  offset="1" style="stop-color:#AA0CC6"/>
		<stop  offset="1" style="stop-color:#AA0CC6"/>
	</linearGradient>
	<path class="st0" d="M404.4,431.4h-29.8c-4.1,0-7.5,3.4-7.5,7.5s3.4,7.5,7.5,7.5h29.8c4.1,0,7.5-3.3,7.5-7.5
		C411.9,434.8,408.6,431.4,404.4,431.4z"/>
	
		<linearGradient id="SVGID_2_" gradientUnits="userSpaceOnUse" x1="-231.4645" y1="506.1671" x2="304.5355" y2="45.167" gradientTransform="matrix(1 0 0 -1 0 512)">
		<stop  offset="6.926126e-08" style="stop-color:#1D70B7"/>
		<stop  offset="0.672" style="stop-color:#1D70B7"/>
		<stop  offset="1" style="stop-color:#AA0CC6"/>
		<stop  offset="1" style="stop-color:#AA0CC6"/>
	</linearGradient>
	<path class="st1" d="M274.3,431.1l-24-21c-3.1-2.7-7.8-2.4-10.6,0.7c-2.7,3.1-2.4,7.8,0.7,10.6l24,21c1.4,1.2,3.2,1.9,4.9,1.9
		c2.1,0,4.2-0.9,5.6-2.6C277.7,438.5,277.4,433.8,274.3,431.1z"/>
	
		<linearGradient id="SVGID_3_" gradientUnits="userSpaceOnUse" x1="-279.7492" y1="450.027" x2="256.2508" y2="-10.973" gradientTransform="matrix(1 0 0 -1 0 512)">
		<stop  offset="6.926126e-08" style="stop-color:#1D70B7"/>
		<stop  offset="0.672" style="stop-color:#1D70B7"/>
		<stop  offset="1" style="stop-color:#AA0CC6"/>
		<stop  offset="1" style="stop-color:#AA0CC6"/>
	</linearGradient>
	<path class="st2" d="M173.4,431.4h-29.8c-4.1,0-7.5,3.4-7.5,7.5s3.3,7.5,7.5,7.5h29.8c4.1,0,7.5-3.3,7.5-7.5
		C180.9,434.8,177.6,431.4,173.4,431.4z"/>
	
		<linearGradient id="SVGID_4_" gradientUnits="userSpaceOnUse" x1="-329.6852" y1="391.9669" x2="206.3148" y2="-69.0331" gradientTransform="matrix(1 0 0 -1 0 512)">
		<stop  offset="6.926126e-08" style="stop-color:#1D70B7"/>
		<stop  offset="0.672" style="stop-color:#1D70B7"/>
		<stop  offset="1" style="stop-color:#AA0CC6"/>
		<stop  offset="1" style="stop-color:#AA0CC6"/>
	</linearGradient>
	<path class="st3" d="M43.3,431.1l-24-21c-3.1-2.7-7.8-2.4-10.6,0.7c-2.7,3.1-2.4,7.8,0.7,10.6l24,21c1.4,1.2,3.2,1.9,4.9,1.9
		c2.1,0,4.2-0.9,5.6-2.6C46.7,438.5,46.4,433.8,43.3,431.1z"/>
	
		<linearGradient id="SVGID_5_" gradientUnits="userSpaceOnUse" x1="-136.622" y1="616.4395" x2="399.378" y2="155.4395" gradientTransform="matrix(1 0 0 -1 0 512)">
		<stop  offset="6.926126e-08" style="stop-color:#1D70B7"/>
		<stop  offset="0.672" style="stop-color:#1D70B7"/>
		<stop  offset="1" style="stop-color:#AA0CC6"/>
		<stop  offset="1" style="stop-color:#AA0CC6"/>
	</linearGradient>
	<path class="st4" d="M508.9,82.3c-1.8-2.4-4.4-4-7.4-4.3L398,65c-4.3-0.5-8.4,1.5-10.6,5.2s-2,8.3,0.5,11.8l23.9,33.3L302,180.4
		L241.4,74.5c-2.1-3.6-5.7-6.1-9.8-6.8c-4.1-0.7-8.3,0.6-11.4,3.4l-107.4,96.3c-3.1,2.8-3.3,7.5-0.6,10.6c2.8,3.1,7.5,3.3,10.6,0.6
		l106.3-95.3l62.7,109.6c1.3,2.2,3.3,3.8,5.8,4.4c2.5,0.7,5,0.3,7.2-1l119.5-70.9c2.3-1.4,4-3.7,4.5-6.4c0.6-2.7,0-5.4-1.6-7.6
		L405.6,81l89.7,11.3l-16.6,90l-21.8-30.7c-2.9-4.1-8.4-5.3-12.8-2.8l-38.9,22.7c-1.4,0.5-2.7,1.1-4,1.8l-15.9,9.2
		c-1.5,0.8-2.8,1.8-4,2.9l-14.3,8.4c-1,0.2-2.1,0.4-3.1,0.7c-0.6,0.2-1.1,0.4-1.7,0.7L280.7,244l-56-88.6c-4-6.3-12.2-8.3-18.7-4.5
		l-73,43.5l0,0c-0.6,0.2-1.1,0.4-1.7,0.7L49.8,244l51.9-46.6c3.1-2.8,3.3-7.5,0.6-10.6c-2.8-3.1-7.5-3.3-10.6-0.6L3.4,265.4
		c-4,3.5-4.6,9.4-1.4,13.7c2,2.7,5.1,4.2,8.2,4.2c1.8,0,3.6-0.5,5.3-1.5l4.4-2.6c2.5,3.6,5.9,6.6,10.1,8.6
		c7.2,3.5,15.4,3.4,22.6-0.1l33.5-16.4l-17.4,85.2c-0.3,1.3-1,2.5-2,3.3c-3.2,2.7-3.5,7.4-0.9,10.5c1.5,1.7,3.6,2.6,5.7,2.6
		c1.7,0,3.4-0.6,4.8-1.8c3.6-3,6-7.2,6.9-11.7l4.3-20.9c4.2,6.9,10,12.8,17.1,17.4l-6.5,16c-1,1.9-3.1,3.2-6.8,5.4
		c-0.5,0.3-0.9,0.6-1.4,0.8l-42.6,24.4l-3.9-3.2l9.5-8.2c3.1-2.7,3.5-7.4,0.8-10.6c-2.7-3.1-7.4-3.5-10.6-0.8l-13.3,11.4
		c-2.4,2.1-3.8,5.1-3.8,8.3c0,3.2,1.5,6.2,3.9,8.2l9.5,7.9c2.1,1.7,4.8,2.6,7.4,2.6c2,0,4-0.5,5.8-1.5L97.2,391c0,0,0.1,0,0.1-0.1
		c0.5-0.3,0.9-0.5,1.4-0.8c4.6-2.7,9.9-5.8,12.9-12.2c0.1-0.1,0.1-0.2,0.1-0.3l5.7-14.2l16.4,9.4c3.3,1.9,5.2,5.6,4.9,9.4l-2.9,31.7
		c-0.2,2.4,0.6,4.9,2.3,6.7c1.7,1.8,4,2.9,6.5,2.9h17.9c4.1,0,7.6-2.8,8.5-6.8l11.1-47.3c1.9-5.9,1.1-12.2-2.1-17.5
		c-0.1-0.1-0.2-0.3-0.3-0.4L143.5,300l20.1-54.3v-0.1c1.6-4.6,2.5-9.3,2.6-14.1c1.1,0.2,2.2,0.2,3.3,0.2c4,0,7.9-1,11.5-3.1
		l15.9-9.2c11-6.4,14.8-20.5,8.4-31.5l-3.6-6.3c-1.6-2.8-3.8-5.2-6.4-7.1l17.3-10.3l55.2,87.3l-17.3,10.4c-2.8,1.7-4.2,4.9-3.5,8
		c1.7,7.8,6.8,14.2,14,17.7c7.2,3.5,15.4,3.4,22.6-0.1l66.2-32.4c3.7-1.8,5.3-6.3,3.4-10c-1.8-3.7-6.3-5.3-10-3.4L277,274.3
		c-3,1.5-6.5,1.5-9.5,0c-1.4-0.7-2.7-1.7-3.6-2.8l18.2-10.9l89.2-52c1.5,0.3,3,1.1,4,2.4l0.3,0.4c0.4,0.9,0.8,1.8,1.3,2.6l3.6,6.3
		l0,0c2.3,6.5,2.3,13.6,0,20.3L361.1,293l-28.7-3.3l-3.7-0.4l0.2-0.9c0.8-4.1-1.8-8-5.9-8.8s-8,1.8-8.8,5.9l-14.6,71.2
		c-0.3,1.3-1,2.5-2,3.4L261,391.3c-2.4,2.1-3.8,5.1-3.8,8.3c0,3.2,1.5,6.2,3.9,8.2l9.5,7.9c2.1,1.8,4.8,2.7,7.4,2.7
		c2,0,4-0.5,5.8-1.5l44.6-25.6c0,0,0.1,0,0.1-0.1c0.5-0.3,0.9-0.5,1.4-0.8c4.7-2.7,9.9-5.8,12.9-12.2c0.1-0.1,0.1-0.2,0.1-0.3
		l5.7-14.2l16.4,9.4c3.3,1.9,5.2,5.6,4.9,9.4l-2.9,31.7c-0.2,2.4,0.6,4.9,2.3,6.7c1.7,1.8,4,2.9,6.5,2.9h17.9c4.1,0,7.6-2.8,8.5-6.8
		l11.1-47.3c1.9-5.9,1.1-12.2-2.1-17.5c-0.1-0.1-0.2-0.3-0.3-0.4L374.5,300l20.1-54.3v-0.1c1.6-4.6,2.5-9.4,2.6-14.1
		c1.1,0.2,2.2,0.2,3.3,0.2c4,0,7.9-1,11.5-3.1l15.9-9.2c11-6.4,14.8-20.5,8.4-31.5l-3.6-6.3c-1.3-2.3-3.1-4.3-5.1-6l19.8-11.6
		l24.7,34.8c2.5,3.6,6.9,5.2,11.2,4.3c4.3-0.9,7.5-4.3,8.3-8.6l19.2-104C511.4,87.7,510.7,84.7,508.9,82.3z M168.2,365.1
		c-0.1,0.2-0.2,0.5-0.2,0.7l-10.1,42.9h-6.2l2.3-24.9c0.9-9.6-4-18.9-12.3-23.7l-26.8-15.4c-14.5-8.3-22.2-24.4-20-40.7l5.7,0.7
		l30.4,3.5l36.8,51.9C168.6,361.6,168.8,363.5,168.2,365.1z M149.5,240.6L130.1,293l-30-3.5l-2.3-0.3L103,263l15.7-7.7
		c3.7-1.8,5.3-6.3,3.4-10c-1.8-3.7-6.3-5.3-10-3.4l-19,9.3c0,0-0.1,0-0.1,0.1l-47.1,23c-3,1.5-6.5,1.5-9.5,0
		c-1.4-0.7-2.7-1.6-3.6-2.8l105.7-63c2.2-0.2,4.3,0.7,5.7,2.4l0.3,0.4c0.4,0.9,0.8,1.8,1.3,2.6l3.6,6.3l0,0
		C151.8,226.8,151.9,233.9,149.5,240.6z M189.4,206.6l-15.9,9.2c-1.9,1.1-4.1,1.4-6.1,0.8c-1.8-0.5-3.3-1.5-4.4-3
		c-1.3-3.2-3-6.3-5-9.3c-0.8-3.4,0.7-7,3.8-8.8l15.9-9.2c1.3-0.7,2.6-1.1,4-1.1c0.7,0,1.4,0.1,2.1,0.3c2.1,0.6,3.8,1.9,4.9,3.8
		l3.6,6.3C194.6,199.4,193.3,204.4,189.4,206.6z M329.2,372c-1,1.9-3.1,3.2-6.8,5.4c-0.5,0.3-0.9,0.5-1.4,0.8l-42.6,24.4l-3.9-3.2
		l32.8-28.1c3.5-3,6-7.2,6.9-11.7l4.3-20.9c4.2,6.9,10,12.8,17.1,17.4L329.2,372z M399.2,365.1c-0.1,0.2-0.2,0.5-0.2,0.7l-10.1,42.9
		h-6.2l2.3-24.9c0.9-9.6-4-18.9-12.3-23.7l-26.8-15.4c-14.5-8.3-22.3-24.4-20-40.7l7.2,0.8l28.9,3.3l36.8,51.9
		C399.6,361.6,399.8,363.5,399.2,365.1z M412.7,185.2c0.7,0,1.4,0.1,2.1,0.3c2.1,0.6,3.8,1.9,4.9,3.8l3.6,6.3
		c2.2,3.9,0.9,8.8-3,11.1l-15.9,9.2c-1.9,1.1-4.1,1.4-6.1,0.8c-1.8-0.5-3.3-1.5-4.4-3c-1.3-3.2-3-6.3-5-9.3c-0.6-2.5,0.1-5,1.6-7
		l20.5-12C411.6,185.3,412.2,185.2,412.7,185.2z"/>
</g>
</svg>
