<?xml version="1.0" encoding="utf-8"?>
<!-- Generator: Adobe Illustrator 23.0.0, SVG Export Plug-In . SVG Version: 6.00 Build 0)  -->
<svg version="1.1" id="Layer_2" xmlns="http://www.w3.org/2000/svg" xmlns:xlink="http://www.w3.org/1999/xlink" x="0px" y="0px"
	 viewBox="0 0 600 600" style="enable-background:new 0 0 600 600;" xml:space="preserve">
<style type="text/css">
	.st0{fill:url(#SVGID_1_);}
	.st1{opacity:0.8;fill:url(#SVGID_2_);}
	.st2{fill:url(#SVGID_3_);}
	.st3{opacity:0.8;fill:url(#SVGID_4_);}
	.st4{opacity:0.8;fill:url(#SVGID_5_);}
	.st5{fill:url(#SVGID_6_);}
</style>
<g>
	<g>
		<linearGradient id="SVGID_1_" gradientUnits="userSpaceOnUse" x1="-387.2647" y1="526.328" x2="410.0945" y2="187.3438">
			<stop  offset="6.926126e-08" style="stop-color:#1D70B7"/>
			<stop  offset="0.672" style="stop-color:#1D70B7"/>
			<stop  offset="1" style="stop-color:#AA0CC6"/>
			<stop  offset="1" style="stop-color:#AA0CC6"/>
		</linearGradient>
		<path class="st0" d="M167.9,158.9c1.9-3.3,4.4-6.4,8.1-8c1.5-0.3,3-0.1,4.4-0.1h73c-2.1,1.8-4.2,3.7-5.6,6.1
			c-3.7,6.1-6.3,13-8.6,19.8c-6.6,20.6-11.2,41.8-15.6,63c-2,9.6-3.9,19.3-5.7,28.9c-5.5,31.5-11.3,62.9-18.4,94
			c-3.4,14.4-6.9,28.8-12.2,42.6c-2.4,5.7-4.8,11.9-9.5,16.1c-1.1,1-2.2,2.2-3.7,2h-64.5c-4.4-0.1-8.7,0.3-13.1-0.2
			c2.9-2.3,5.5-5,7.2-8.2c4.8-9.2,7.9-19.2,10.8-29.1c4.5-16,8.1-32.2,11.5-48.3c2.1-10.6,4.6-21.2,6.2-31.9
			c1.7-11.9,4.4-23.7,6.5-35.6c3.4-17.5,6.9-34.9,10.8-52.3c3.2-13.5,6.4-27,10.7-40.2C162.2,171.1,164.6,164.8,167.9,158.9z"/>
		<linearGradient id="SVGID_2_" gradientUnits="userSpaceOnUse" x1="-357.1161" y1="613.823" x2="382.6796" y2="221.5393">
			<stop  offset="6.926126e-08" style="stop-color:#1D70B7"/>
			<stop  offset="0.672" style="stop-color:#1D70B7"/>
			<stop  offset="1" style="stop-color:#AA0CC6"/>
			<stop  offset="1" style="stop-color:#AA0CC6"/>
		</linearGradient>
		<path class="st1" d="M253.4,150.8c1.9,0,3.7-0.1,5.6,0c4.1,2.2,7.6,5.7,9.5,10c2.6,4.9,4.7,10.1,6.6,15.3
			c6.4,19.9,10.8,40.4,15.2,60.9c3.7,18.3,7.3,36.7,10.6,55.1c0.3,1-0.1,2.3,1.2,2.6c-4.6,24.2-9.2,48.5-15,72.6
			c-3.2,13-6.5,25.9-11.3,38.4c-2.6,6.3-5.2,13.1-10.7,17.5c-3.5,0.8-6-1.9-8.1-4.3c-3.7-4.7-5.9-10.2-8.1-15.8
			c-7.3-19.9-11.7-40.5-16.2-61.2c-3.4-16.1-6.4-32.2-9.6-48.3c-1.4-8.2-3.4-16.2-4.4-24.4c-0.2-0.1-0.6-0.4-0.8-0.5
			c1.8-9.6,3.7-19.3,5.7-28.9c4.4-21.2,9-42.4,15.6-63c2.3-6.8,4.8-13.7,8.6-19.8C249.2,154.4,251.3,152.6,253.4,150.8z"/>
		<linearGradient id="SVGID_3_" gradientUnits="userSpaceOnUse" x1="-361.5694" y1="586.7684" x2="435.7897" y2="247.7842">
			<stop  offset="6.926126e-08" style="stop-color:#1D70B7"/>
			<stop  offset="0.672" style="stop-color:#1D70B7"/>
			<stop  offset="1" style="stop-color:#AA0CC6"/>
			<stop  offset="1" style="stop-color:#AA0CC6"/>
		</linearGradient>
		<path class="st2" d="M334,161.9c2.3-4.4,5.2-9.4,10.2-11.1c25.6-0.1,51.2-0.1,76.8-0.1c-2.4,2.4-4.9,4.8-6.5,7.8
			c-5,8.9-7.9,18.8-10.8,28.5c-7.6,26.8-13,54.2-18.1,81.6c-4.7,27-9.7,54-15.5,80.9c-3,13.5-6.1,27-10,40.4
			c-2.5,8.3-5.2,16.6-9.3,24.2c-2,3.5-4.3,7.3-8.1,9.1c-24.4,0.2-48.9,0-73.4,0.1c-1.4,0-2.8,0-4.1-0.2c5.5-4.4,8.1-11.3,10.7-17.5
			c4.8-12.5,8.1-25.4,11.3-38.4c5.8-24,10.4-48.3,15-72.6c5.6-31.3,11.5-62.5,19-93.4C324.7,187.9,328,174.4,334,161.9z"/>
		<linearGradient id="SVGID_4_" gradientUnits="userSpaceOnUse" x1="-320.3233" y1="683.2095" x2="419.4725" y2="290.9258">
			<stop  offset="6.926126e-08" style="stop-color:#1D70B7"/>
			<stop  offset="0.672" style="stop-color:#1D70B7"/>
			<stop  offset="1" style="stop-color:#AA0CC6"/>
			<stop  offset="1" style="stop-color:#AA0CC6"/>
		</linearGradient>
		<path class="st3" d="M421,150.8c2.1,0,4.2-0.1,6.3,0c3.4,1.7,5.7,4.7,7.9,7.7c3.5,5.5,5.7,11.8,7.9,17.9
			c5.4,16.4,9.3,33.3,13,50.2c4.9,22.8,9.2,45.6,13.3,68.5c1,5.5,2.1,11,2.7,16.6c0.3,0.3,0.8,0.8,1,1c-2.3,3.2-3.2,7.1-4.5,10.8
			c-4.1,13.1-6.7,26.6-9,40.1c-1.7,10.6-4.1,21.1-7.4,31.3c-2.4,7.5-5.4,15-10.3,21.3c-2.3,3-5.5,5.4-9,6.9
			c-5.4,0.6-8.5-4.6-11.1-8.4c-5.4-9.3-8.3-19.8-11.3-30c-10.2-37.7-16.8-76.3-24-114.7c-0.1-0.6-0.4-1.1-0.9-1.4
			c5.1-27.4,10.4-54.8,18.1-81.6c3-9.7,5.9-19.6,10.8-28.5C416.1,155.5,418.6,153.2,421,150.8z"/>
		<linearGradient id="SVGID_5_" gradientUnits="userSpaceOnUse" x1="-369.1394" y1="591.1487" x2="370.6564" y2="198.8651">
			<stop  offset="6.926126e-08" style="stop-color:#1D70B7"/>
			<stop  offset="0.672" style="stop-color:#1D70B7"/>
			<stop  offset="1" style="stop-color:#AA0CC6"/>
			<stop  offset="1" style="stop-color:#AA0CC6"/>
		</linearGradient>
		<path class="st4" d="M36.1,297.4c1.7-0.1,3.4-0.4,5.1-0.4h70.3c3,0.4,6.1,0.1,8.9,1.4c4.1,1.7,7.8,4.5,10.5,8.1
			c0.3-0.2,0.9-0.7,1.2-1c-1.5,10.7-4.1,21.3-6.2,31.9c-3.4,16.2-7,32.4-11.5,48.3c-2.9,9.9-5.9,19.9-10.8,29.1
			c-1.7,3.2-4.3,5.9-7.2,8.2c-1.1,0.2-1.9-0.6-2.8-1.2c-3-1.9-4.8-5.3-6.6-8.3c-8.8-20.1-9.8-42.4-15.3-63.4
			c-2.8-10.5-6.2-21-11.2-30.6c-3.1-5.8-6.9-11.3-11.9-15.8C44.9,300.9,40.7,298.5,36.1,297.4z"/>
		<linearGradient id="SVGID_6_" gradientUnits="userSpaceOnUse" x1="-311.2708" y1="705.0809" x2="486.0883" y2="366.0967">
			<stop  offset="6.926126e-08" style="stop-color:#1D70B7"/>
			<stop  offset="0.672" style="stop-color:#1D70B7"/>
			<stop  offset="1" style="stop-color:#AA0CC6"/>
			<stop  offset="1" style="stop-color:#AA0CC6"/>
		</linearGradient>
		<path class="st5" d="M478.8,304.1c4.1-4.6,10.1-7.5,16.2-7.2h52.9c7.3,0.1,14.8-0.3,22.1,0.2c-2.2,1.5-4.8,2.1-7.2,3.3
			c-8.1,3.7-15,9.8-19.3,17.5c-7,12.2-9.5,26.3-11.5,40.1c-2.1,13.5-2,27.5-6.4,40.7c-3,9.2-7.5,18.5-15.3,24.6
			c-24.2,0.3-48.5,0.1-72.7,0.1c-1.6,0-3.2,0.1-4.7-0.3c3.5-1.5,6.6-3.9,9-6.9c4.9-6.3,7.9-13.8,10.3-21.3
			c3.3-10.2,5.7-20.7,7.4-31.3c2.3-13.5,4.9-27,9-40.1c1.3-3.7,2.2-7.5,4.5-10.8C475,309.9,476.3,306.6,478.8,304.1z"/>
	</g>
</g>
</svg>
