<?xml version="1.0" encoding="utf-8"?>
<!-- Generator: Adobe Illustrator 23.0.0, SVG Export Plug-In . SVG Version: 6.00 Build 0)  -->
<svg version="1.1" id="Capa_1" xmlns="http://www.w3.org/2000/svg" xmlns:xlink="http://www.w3.org/1999/xlink" x="0px" y="0px"
	 viewBox="0 0 1792 1792" style="enable-background:new 0 0 1792 1792;" xml:space="preserve">
<style type="text/css">
	.st0{fill:url(#Trazado_70_1_);}
	.st1{fill:url(#Trazado_71_1_);}
</style>
<g id="Grupo_74" transform="translate(62.738 93.365)">
	<linearGradient id="Trazado_70_1_" gradientUnits="userSpaceOnUse" x1="89.1022" y1="769.2308" x2="1577.8468" y2="769.2308">
		<stop  offset="6.926126e-08" style="stop-color:#EA7E8E"/>
		<stop  offset="1" style="stop-color:#E02C2F"/>
	</linearGradient>
	<path id="Trazado_70" class="st0" d="M1527,314.1L888.1-59.3c-15.7-9.2-33.6-14-51.8-14c-18,0-35.6,4.7-51.2,13.6L140.6,311
		c-31.8,18.3-51.5,52.2-51.5,89v741.3c0,36.8,19.7,70.8,51.6,89.1l193.5,110.9l0,0l71,27.5c0,0,64.7,6.9,117.6-8.2
		c85.7-21.2,109.7-118.5,109.7-172.3V469.7c0-6.4-5.2-11.7-11.7-11.6c0,0,0,0,0,0h-79.4c-6.4,0-11.6,5.2-11.6,11.6c0,0,0,0,0,0
		v718.6c0,0.7-1.7,73-39.4,74h-87.4l-211.1-121V399.9L836.3,29.3l638.9,373.4v738.5l-641.7,367.9l-181.1-103.8L543.2,1461
		l239.2,137.1c31.6,18.1,70.5,18.1,102.1,0l641.7-367.9c31.9-18.3,51.6-52.3,51.6-89.1V402.7C1577.8,366.2,1558.5,332.5,1527,314.1z
		"/>
	<linearGradient id="Trazado_71_1_" gradientUnits="userSpaceOnUse" x1="697.4496" y1="778.9189" x2="1331.9335" y2="778.9189">
		<stop  offset="6.926126e-08" style="stop-color:#EA7E8E"/>
		<stop  offset="1" style="stop-color:#E02C2F"/>
	</linearGradient>
	<path id="Trazado_71" class="st1" d="M1059.3,720.4c-127.6,0-203.3-36.3-214.7-51.9c-11.4-15.6-2.1-61.2-2.1-61.2
		s14.5-63.3,185.7-64.3s168,126.6,168,126.6h114.1c0,0,33.2-223-291.5-231.3C765.6,431.8,727.6,569.2,723.1,630l0,0
		c-1.3,12.4-1.4,24.9-0.3,37.4c0,2.2,0.2,4.7,0.5,7.4l0,0.5l0,0.1c4.8,40.7,44.3,140.3,315.2,151.8c0,0,166,8.3,174.3,90.2
		c8.3,81.9-76.8,99.6-217.8,97.5c-141.1-2.1-167-41.5-183.6-133.8h-113c0,0-22.8,183.6,167,220.9c189.8,37.3,449.1,32.2,465.7-187.8
		C1331,914.4,1362.2,742.2,1059.3,720.4z"/>
</g>
</svg>
