<?xml version="1.0" encoding="utf-8"?>
<!-- Generator: Adobe Illustrator 23.0.0, SVG Export Plug-In . SVG Version: 6.00 Build 0)  -->
<svg version="1.1" id="Layer_2" xmlns="http://www.w3.org/2000/svg" xmlns:xlink="http://www.w3.org/1999/xlink" x="0px" y="0px"
	 viewBox="0 0 600 600" style="enable-background:new 0 0 600 600;" xml:space="preserve">
<style type="text/css">
	.st0{fill:url(#SVGID_1_);}
	.st1{fill:url(#SVGID_2_);}
</style>
<g>
	
		<linearGradient id="SVGID_1_" gradientUnits="userSpaceOnUse" x1="-167.1115" y1="576.4296" x2="445.8885" y2="216.4296" gradientTransform="matrix(1 0 0 -1 0 602)">
		<stop  offset="6.926126e-08" style="stop-color:#1D70B7"/>
		<stop  offset="0.672" style="stop-color:#1D70B7"/>
		<stop  offset="1" style="stop-color:#AA0CC6"/>
		<stop  offset="1" style="stop-color:#AA0CC6"/>
	</linearGradient>
	<circle class="st0" cx="299.5" cy="299.6" r="50.2"/>
	
		<linearGradient id="SVGID_2_" gradientUnits="userSpaceOnUse" x1="-167.323" y1="576.0693" x2="445.6769" y2="216.0694" gradientTransform="matrix(1 0 0 -1 0 602)">
		<stop  offset="6.926126e-08" style="stop-color:#1D70B7"/>
		<stop  offset="0.672" style="stop-color:#1D70B7"/>
		<stop  offset="1" style="stop-color:#AA0CC6"/>
		<stop  offset="1" style="stop-color:#AA0CC6"/>
	</linearGradient>
	<path class="st1" d="M551.4,249.6c-17.4-14.4-41.9-27.4-71-37.4c-5.8-2-11.8-3.9-18-5.7c1-4.2,2-8.3,2.8-12.4
		c14-67.6,4.1-120.4-25.8-137.6c-14.6-8.4-34.6-8.4-57.7,0.1c-21.2,7.8-44.7,22.6-67.9,42.8c-4.7,4.1-9.4,8.4-14,12.9
		c-3.1-3-6.3-5.9-9.4-8.7c-51.6-45.9-102.3-63.7-132.1-46.4c-14.7,8.5-24.6,25.8-28.8,50.1c-3.8,22.3-2.7,50,3.2,80.2
		c1.2,6.1,2.6,12.3,4.2,18.6c-7.2,2-14.2,4.2-20.9,6.6c-61.1,21.2-97.5,53.7-97.5,86.9c0,17.3,10.2,35.2,29.4,51.6
		c18.1,15.5,43.5,29.1,73.4,39.3c4.9,1.7,10,3.3,15.3,4.8c-1.7,6.8-3.1,13.5-4.4,20c-12.1,63.5-2.1,111.3,26.6,127.9
		c7.6,4.4,16.6,6.6,26.8,6.6c9.8,0,20.8-2.1,32.5-6.3c22.4-7.9,46.9-23.1,70.7-43.9c3.9-3.4,7.8-7,11.7-10.8
		c5.1,4.9,10.1,9.5,15.2,13.9c36,31,70.5,47.4,97.7,47.4c9.9,0,18.8-2.2,26.3-6.6c15-8.7,25.4-26.4,30-51.3
		c4.3-23.4,3.3-52.2-2.8-83.2c-1-4.9-2.1-9.9-3.4-15c3.6-1.1,7.1-2.1,10.5-3.3c65.6-21.7,106.3-56.6,106.3-91.1
		C580.3,282.7,570.3,265.4,551.4,249.6z M389.9,79.2c16-5.9,29.3-6.5,37.5-1.8c16.1,9.3,27.4,48.3,14.3,112
		c-0.7,3.6-1.6,7.3-2.5,11.1c-23.4-5.4-48.7-9.4-75.2-11.9c-15.4-22-31.4-41.9-47.4-59.2c4.3-4.1,8.6-8.1,12.9-11.8
		C350.5,99.3,371.4,86,389.9,79.2z M377.9,345.4c-8.8,15.3-17.8,29.8-26.9,43.4c-16.7,1.2-33.9,1.8-51.5,1.8s-34.6-0.5-50.8-1.6
		c-9.6-14-18.8-28.5-27.5-43.5s-16.7-30.2-24-45.3c7.3-15.2,15.3-30.3,23.8-45.2l0,0c8.7-15.1,17.8-29.6,27.3-43.5
		c16.8-1.3,33.9-1.9,51.1-1.9c17.3,0,34.5,0.7,51.2,1.9c9.3,13.7,18.4,28.2,27.1,43.3c8.9,15.3,17,30.4,24.3,45.1
		C394.8,314.9,386.7,330.2,377.9,345.4z M415,327.5c7.5,17.2,13.9,33.7,18.9,49.4c-16.3,3.7-33.9,6.7-52.4,8.9
		c5.8-9.2,11.6-18.7,17.2-28.6C404.4,347.4,409.9,337.4,415,327.5z M300.5,454.5c-11.4-12.3-22.7-25.9-33.8-40.5
		c10.7,0.4,21.7,0.6,32.8,0.6c11.5,0,22.8-0.3,34-0.8C322.5,428.8,311.5,442.4,300.5,454.5z M218,386.3c-18.4-2.1-35.8-4.8-51.7-8.3
		c5-16,11.1-32.7,18.2-49.6c5,9.7,10.3,19.4,15.9,29C206.1,367.3,212,377,218,386.3z M200.4,242.9c-5.6,9.7-10.9,19.4-15.9,29.1
		c-7-16.6-13-32.9-17.9-48.7c16.1-3.6,33.2-6.5,51-8.7C211.7,223.8,206,233.3,200.4,242.9z M299.8,146.6c11,12,22.1,25.3,33,39.8
		c-11-0.5-22.1-0.8-33.4-0.8c-11.1,0-22,0.3-32.9,0.8C277.4,172,288.5,158.7,299.8,146.6z M398.5,242.7c-5.6-9.6-11.3-19-17.1-28.1
		c17.9,2.3,35.1,5.3,51.3,9c-4.8,15.5-10.9,31.8-18,48.5C409.6,262.4,404.2,252.6,398.5,242.7z M156.3,182.9
		c-5.4-27.3-6.4-52.1-3.1-71.5c2.9-16.8,9-28.7,17.2-33.4c16.1-9.3,55.5,0.4,104.1,43.6c2.8,2.5,5.6,5.1,8.5,7.8
		c-16.3,17.5-32.4,37.5-47.7,59.1c-26.4,2.4-51.7,6.4-75.1,11.7C158.7,194.3,157.4,188.6,156.3,182.9z M129.1,367.8
		c-59.4-20.3-86.5-49.6-86.5-68.2c0-17.9,25.2-44.7,81.4-64.3c6.1-2.1,12.6-4.2,19.3-6.1c7,22.9,16.3,46.9,27.4,71
		c-11.3,24.5-20.6,48.7-27.7,71.9C138.2,370.8,133.6,369.3,129.1,367.8z M185.6,525.8c-6.1,0-11.1-1.2-14.9-3.4
		c-15.4-8.9-26.1-44.1-15-102.6c1.1-6,2.5-12.3,4.1-18.6c22.9,5.1,48.3,8.7,75.6,11c15.5,21.9,31.8,42,48.3,59.6
		c-3.6,3.4-7.1,6.7-10.7,9.8C236.8,513.2,205.5,525.8,185.6,525.8z M443.5,413.7c12.2,61.6,0.4,99.7-15.7,109
		c-15.5,9-51.3,0.6-96.4-38.2c-4.7-4-9.4-8.3-14.2-12.9c15.8-17.2,31.6-37.3,47.1-59.8c27.2-2.4,52.9-6.4,76.1-11.7
		C441.6,404.7,442.6,409.2,443.5,413.7z M466.5,367.9c-3.1,1-6.2,2-9.5,3c-7.1-22.4-16.6-46.3-28.4-71.1
		c11.2-24.2,20.5-47.9,27.4-70.2c5.7,1.7,11.3,3.4,16.7,5.3c26.3,9.1,48.3,20.6,63.4,33.2c13.1,10.9,20.3,22.1,20.3,31.6
		C556.4,318.1,528.2,347.4,466.5,367.9z"/>
</g>
</svg>
