<?xml version="1.0" encoding="utf-8"?>
<!-- Generator: Adobe Illustrator 23.0.0, SVG Export Plug-In . SVG Version: 6.00 Build 0)  -->
<svg version="1.1" id="Capa_1" xmlns="http://www.w3.org/2000/svg" xmlns:xlink="http://www.w3.org/1999/xlink" x="0px" y="0px"
	 viewBox="0 0 138 70" style="enable-background:new 0 0 138 70;" xml:space="preserve">
<style type="text/css">
	.st0{enable-background:new    ;}
	.st1{fill:#1F001D;}
</style>
<g class="st0">
	<path class="st1" d="M5.6,58c-1.4,0-2.8-0.3-4.1-1l0.3-2.7c1.2,0.7,2.4,1,3.6,1c0.5,0,1.1-0.1,1.6-0.2c1.2-0.3,2.2-1,3-1.9
		c1.1-1.2,1.7-2.6,1.7-4.5c0-1.1-0.2-2.2-0.6-3.4c-0.4-1.2-1-2.3-1.7-3.4l-4.8-7.1c-1-1.5-1.8-2.9-2.3-4.1c-0.5-1.3-0.8-2.5-0.8-3.9
		c0-0.7,0.1-1.5,0.3-2.5c0.4-1.6,1.2-3.1,2.3-4.3c1.2-1.2,2.5-2,4-2.5c0.8-0.2,1.5-0.3,2.3-0.3c1.3,0,2.5,0.3,3.8,0.8l-0.3,2.6
		c-1-0.5-2.1-0.8-3.2-0.8c-0.6,0-1.2,0.1-1.6,0.2c-1.2,0.3-2.2,1-3,1.9c-0.8,0.9-1.3,2-1.7,3.3c-0.2,0.5-0.2,1.1-0.2,1.7
		c0,1,0.2,2,0.6,3c0.4,0.9,1.1,2,1.9,3.2l4.8,7.3c1,1.5,1.8,2.8,2.3,4c0.5,1.2,0.8,2.5,0.8,3.8c0,0.8-0.1,1.7-0.3,2.6
		c-0.3,1.6-1.1,3.1-2.3,4.3c-1,1.2-2.4,2-3.9,2.5C7,57.9,6.2,58,5.6,58z"/>
	<path class="st1" d="M28.1,56.4c-2.5-1-4.7-2.5-6.6-4.4c-1.9-1.9-3.4-4.1-4.4-6.6c-1-2.5-1.6-5.1-1.6-7.9s0.5-5.4,1.6-7.9
		s2.5-4.6,4.4-6.5c1.9-1.9,4.1-3.4,6.6-4.4c2.5-1,5.1-1.6,7.9-1.6c2.8,0,5.4,0.5,7.9,1.6c2.5,1,4.6,2.5,6.5,4.4
		c1.9,1.9,3.4,4,4.4,6.5c1,2.5,1.6,5.1,1.6,7.9s-0.5,5.4-1.6,7.9c-1,2.5-2.5,4.7-4.4,6.6c-1.9,1.9-4,3.4-6.5,4.4
		c-2.5,1-5.1,1.6-7.9,1.6C33.2,58,30.5,57.5,28.1,56.4z M42.9,54.1c2.2-0.9,4.1-2.2,5.7-3.9c1.7-1.7,3-3.6,3.9-5.7
		c0.9-2.2,1.4-4.5,1.4-6.9s-0.5-4.7-1.4-6.9c-0.9-2.2-2.2-4.1-3.9-5.7c-1.6-1.7-3.5-3-5.7-3.9c-2.2-0.9-4.5-1.4-6.9-1.4
		c-2.4,0-4.7,0.5-6.9,1.4C26.9,22,25,23.3,23.3,25c-1.7,1.6-2.9,3.5-3.9,5.7c-0.9,2.2-1.4,4.5-1.4,6.9s0.5,4.7,1.4,6.9
		c0.9,2.2,2.2,4.1,3.9,5.7c1.7,1.7,3.6,2.9,5.7,3.9c2.2,0.9,4.5,1.4,6.9,1.4C38.4,55.4,40.7,55,42.9,54.1z"/>
	<path class="st1" d="M59.2,17.3h2.6v38.1h6.5V58h-9V17.3z"/>
</g>
<g class="st0">
	<path class="st1" d="M92.9,42.5c-0.5,0-1,0.2-1.6,0.5c-0.5,0.3-1.1,0.6-1.6,1.1c-0.6,0.6-1.2,1.3-1.7,2.2l-2,3.5
		c1.2,2.1,1.9,3.3,2,3.6c0.5,0.9,1.1,1.6,1.7,2.2c0.5,0.5,1,0.8,1.6,1.1c0.6,0.3,1.1,0.5,1.5,0.5h0.1c-0.3,0.5-0.7,0.8-1.2,1
		c-0.4,0.2-0.8,0.3-1.3,0.3c-0.2,0-0.4,0-0.6-0.1c-1.8-0.3-3.3-1.5-4.6-3.8c-0.1-0.2-0.4-0.7-1-1.7l-1.3,2.3c-0.6,1-1.4,1.8-2.4,2.4
		c-1,0.6-2.1,0.9-3.3,0.9c-1.8,0-3.4-0.6-4.7-1.9s-1.9-2.8-1.9-4.7v-4c0-1.9,0.5-3.8,1.5-5.7c0.7-1.2,1.8-2.8,3.4-4.7
		c-0.9-1.7-1.7-3.1-2.4-4.2c-1-1.7-1.5-3.6-1.5-5.7V23c0-1.7,0.6-3.1,1.8-4.3s2.6-1.8,4.3-1.8s3.1,0.6,4.3,1.8s1.8,2.6,1.8,4.3v4.6
		c0,1.9-0.5,3.7-1.4,5.6c-0.7,1.3-1.7,2.8-3.2,4.6c1.8,3.1,3.4,6.1,5,9c0.1-0.2,0.2-0.4,0.3-0.6l0.1-0.2l0.1-0.2
		c0.2-0.3,0.3-0.5,0.3-0.5c1.3-2.3,2.9-3.6,4.6-3.9c0.2,0,0.4,0,0.6,0c0.5,0,0.9,0.1,1.4,0.3C92.2,41.8,92.6,42.1,92.9,42.5z
		 M80.2,53.7c0.8-1.3,1.5-2.6,2.2-3.8c-0.7-1.2-1.6-2.8-2.6-4.7c-0.4-0.6-0.8-1.5-1.4-2.5l-0.7-1.2L77,40.3
		c-2.3,2.9-3.5,5.4-3.5,7.5v4c0,1,0.3,1.8,1,2.5c0.7,0.7,1.5,1,2.5,1C78.5,55.5,79.5,54.9,80.2,53.7z M74.6,27.6
		c0,1.5,0.7,3.5,2.2,6c0.2,0.3,0.4,0.8,0.7,1.3c2.1-2.7,3.1-5.1,3.1-7.3V23c0-0.8-0.3-1.5-0.9-2.2c-0.6-0.6-1.3-0.9-2.2-0.9
		c-0.8,0-1.6,0.3-2.2,0.9c-0.6,0.6-0.9,1.3-0.9,2.2V27.6z"/>
</g>
<g class="st0">
	<path class="st1" d="M107.7,56.4c-2.5-1-4.7-2.5-6.6-4.4s-3.4-4.1-4.4-6.6c-1-2.5-1.6-5.1-1.6-7.9s0.5-5.4,1.6-7.9s2.5-4.6,4.4-6.5
		c1.9-1.9,4.1-3.4,6.6-4.4c2.5-1,5.1-1.6,7.9-1.6c2,0,4,0.3,5.9,0.9c1.9,0.6,3.7,1.4,5.3,2.5c3.4,2.2,5.9,5.3,7.5,9.1h-2.8
		c-1.5-2.9-3.5-5.3-6.1-7c-3-2-6.3-3-9.9-3c-2.4,0-4.7,0.5-6.9,1.4c-2.2,0.9-4.1,2.2-5.7,3.9c-1.7,1.6-2.9,3.5-3.9,5.7
		c-0.9,2.2-1.4,4.5-1.4,6.9s0.5,4.7,1.4,6.9c0.9,2.2,2.2,4.1,3.9,5.7c1.7,1.7,3.6,2.9,5.7,3.9c2.2,0.9,4.5,1.4,6.9,1.4
		c2.3,0,4.5-0.4,6.5-1.2c2.1-0.8,3.9-2,5.5-3.5c1.4-1.3,2.6-2.9,3.6-4.6c1-1.8,1.6-3.6,2-5.7h-12.7v-2.6H136l-0.1,1.4
		c-0.2,2.6-0.9,5.1-2,7.4c-1.1,2.3-2.6,4.3-4.5,5.9c-1.9,1.7-4,3-6.4,4c-2.4,0.9-4.9,1.4-7.5,1.4C112.8,58,110.2,57.5,107.7,56.4z"
		/>
</g>
</svg>
