<?xml version="1.0" encoding="utf-8"?>
<!-- Generator: Adobe Illustrator 23.0.0, SVG Export Plug-In . SVG Version: 6.00 Build 0)  -->
<svg version="1.1" id="Capa_1" xmlns="http://www.w3.org/2000/svg" xmlns:xlink="http://www.w3.org/1999/xlink" x="0px" y="0px"
	 viewBox="0 0 63.4 63.7" style="enable-background:new 0 0 63.4 63.7;" xml:space="preserve">
<style type="text/css">
	.st0{fill:url(#SVGID_1_);}
	.st1{fill:url(#SVGID_2_);}
	.st2{fill:url(#SVGID_3_);}
	.st3{fill:url(#SVGID_4_);}
</style>
<g id="co-founder-business-entrepneur-startup">
	
		<linearGradient id="SVGID_1_" gradientUnits="userSpaceOnUse" x1="-121.8229" y1="102.1478" x2="66.6027" y2="16.3606" gradientTransform="matrix(1 0 0 -1 0 66)">
		<stop  offset="6.926126e-08" style="stop-color:#1D70B7"/>
		<stop  offset="0.672" style="stop-color:#1D70B7"/>
		<stop  offset="1" style="stop-color:#AA0CC6"/>
		<stop  offset="1" style="stop-color:#AA0CC6"/>
	</linearGradient>
	<path class="st0" d="M53.4,41.3l-3-3c-0.2-0.2-0.5-0.3-0.7-0.3c-0.3,0-0.5,0.1-0.7,0.3l-0.1,0.3l-0.9-1V35c0-0.3-0.1-0.5-0.3-0.7
		L42,28.6V22c0-0.3-0.1-0.5-0.3-0.7L40,19.6V18c0,0,1-0.4,1-1v-4V-0.3h-2v12H25v-12h-2V13v4c0,0.6,0,1,1,1v1.6l-3.7,3.7
		C20.1,23.5,20,23.7,20,24v2.6l-4.7,4.7C15.1,31.5,15,31.7,15,32v5.6l-1.1,1l-0.4-0.3c-0.4-0.4-1.1-0.4-1.5,0l-3,3l-9,9l1.4,1.4
		l8.3-8.3L20.3,54L12,62.3l1.4,1.4l9-9l3-3c0.4-0.4,0.4-1,0-1.4L25.1,50l1.1-1.1c0.2,0,0.3,0.1,0.5,0.1c0.4,0,0.8-0.1,1.1-0.2
		c0.3,1.3,1.5,2.2,2.9,2.2c1.1,0,2-0.7,2.5-1.5c0.4,0.2,0.9,0.3,1.5,0.3h1.6l1,1.1L37,51.2c-0.4,0.4-0.4,1,0,1.4l3,3l8,8l1.4-1.4
		L42.1,55l3.5-3.8l7.1-7.7l9.3,9.3l1.4-1.4L53.4,41.3z M39,13.7v2H25v-2H39z M21.7,52.6L11.1,42l1.6-1.6l0.3,0.3l10,10l0.3,0.3
		L21.7,52.6z M15.1,40l1.4-1.3c0.2-0.2,0.4-0.4,0.4-0.7v-5.6l3-3V31c0,0.3,0.1,0.5,0.3,0.7l3.7,3.7V46c0,0.7,0.1,1.4,0.5,1.9
		l-0.8,0.7L15.1,40z M34,47V31.7h-2V47v1c0,0.6-0.4,1-1,1s-1-0.4-1-1v-2V31.7h-2V46c0,0.6-0.4,1-1,1s-1-0.4-1-1V29.7h-2v2.9l-2-2V28
		v-2v-1.6l3.7-3.7c0.2-0.2,0.3-0.4,0.3-0.7v-2.3h12V20c0,0.3,0.1,0.5,0.3,0.7l1.7,1.7V42c0,0.6-0.4,1-1,1s-1-0.4-1-1V31.7h-2V42v5
		c0,0.6-0.4,1-1,1S34,47.6,34,47z M37.4,48.3L37.4,48.3c0.3-0.4,0.5-0.8,0.5-1.3v-2.2c0,0.1,0.6,0.2,1,0.2c1.7,0,3-1.3,3-3V31.4l4,4
		V38c0,0.3,0,0.5,0.1,0.7l1.3,1.3L43,44.8l-4.3,4.7L37.4,48.3z M39.2,51.9c0.1-0.1,0.2-0.1,0.2-0.2l5-5.5l5.3-5.7l1.6,1.6l-3.5,3.8
		l-7.1,7.7L39.1,52L39.2,51.9z"/>
	
		<linearGradient id="SVGID_2_" gradientUnits="userSpaceOnUse" x1="-131.3321" y1="81.2614" x2="57.0934" y2="-4.5259" gradientTransform="matrix(1 0 0 -1 0 66)">
		<stop  offset="6.926126e-08" style="stop-color:#1D70B7"/>
		<stop  offset="0.672" style="stop-color:#1D70B7"/>
		<stop  offset="1" style="stop-color:#AA0CC6"/>
		<stop  offset="1" style="stop-color:#AA0CC6"/>
	</linearGradient>
	<path class="st1" d="M31.7,59c-3.3,0-6.6-0.6-9.6-1.9l-0.8,1.8c3.3,1.4,6.8,2.1,10.4,2.1c2.8,0,5.6-0.4,8.3-1.3l-0.6-1.9
		C36.9,58.6,34.3,59,31.7,59z"/>
	
		<linearGradient id="SVGID_3_" gradientUnits="userSpaceOnUse" x1="-115.5874" y1="115.8435" x2="72.8381" y2="30.0562" gradientTransform="matrix(1 0 0 -1 0 66)">
		<stop  offset="6.926126e-08" style="stop-color:#1D70B7"/>
		<stop  offset="0.672" style="stop-color:#1D70B7"/>
		<stop  offset="1" style="stop-color:#AA0CC6"/>
		<stop  offset="1" style="stop-color:#AA0CC6"/>
	</linearGradient>
	<path class="st2" d="M56.7,34c0,2.3-0.3,4.7-1,6.9l1.9,0.6c0.7-2.4,1-4.9,1-7.4c0-10.4-6.1-20-15.6-24.5l-0.8,1.8
		C51,15.4,56.7,24.3,56.7,34z"/>
	
		<linearGradient id="SVGID_4_" gradientUnits="userSpaceOnUse" x1="-121.8851" y1="102.0111" x2="66.5404" y2="16.2239" gradientTransform="matrix(1 0 0 -1 0 66)">
		<stop  offset="6.926126e-08" style="stop-color:#1D70B7"/>
		<stop  offset="0.672" style="stop-color:#1D70B7"/>
		<stop  offset="1" style="stop-color:#AA0CC6"/>
		<stop  offset="1" style="stop-color:#AA0CC6"/>
	</linearGradient>
	<path class="st3" d="M7.6,40.7C7,38.6,6.7,36.3,6.7,34c0-9.7,5.7-18.6,14.4-22.7l-0.8-1.8C10.8,14,4.7,23.6,4.7,34
		c0,2.5,0.3,4.9,1,7.3L7.6,40.7z"/>
</g>
<g id="Layer_1">
</g>
</svg>
